# xmcd
# 
# Track frame offsets:
#     150
#     9977
#     20530
#     32977
#     47400
#     58165
#     69345
# 
# Disc length: 1084
# 
# Revision: 4
# Processed by: cddbd v1.5.2PL0 Copyright (c) Steve Scherf et al.
# Submitted via: BonkEnc v1.0.8
# 
DISCID=52043a07
DTITLE=Save Ferris - Introducing Save Ferris
DYEAR=1996
DGENRE=Ska Punk
TTITLE0=The World Is New
TTITLE1=For You
TTITLE2=Superspy
TTITLE3=Sorry My Friend
TTITLE4=Spam
TTITLE5=You And Me
TTITLE6=Under 21
EXTD=
EXTT0=
EXTT1=
EXTT2=
EXTT3=
EXTT4=
EXTT5=
EXTT6=
PLAYORDER=
